<?xml version="1.0" encoding="UTF-8" standalone="no"?>
<!DOCTYPE svg PUBLIC "-//W3C//DTD SVG 1.1//EN" "http://www.w3.org/Graphics/SVG/1.1/DTD/svg11.dtd">
<svg width="100%" height="100%" viewBox="0 0 300 300" version="1.1" xmlns="http://www.w3.org/2000/svg" xmlns:xlink="http://www.w3.org/1999/xlink" xml:space="preserve" xmlns:serif="http://www.serif.com/" style="fill-rule:evenodd;clip-rule:evenodd;">
    <g>
        <g id="frame">
            <g id="Oval-1">
                <path id="path-1" d="M150,22C220.692,22 278,79.308 278,150C278,220.692 220.692,278 150,278C79.308,278 22,220.692 22,150C22,79.308 79.308,22 150,22ZM150,29C83.174,29 29,83.174 29,150C29,216.826 83.174,271 150,271C216.826,271 271,216.826 271,150C271,83.174 216.826,29 150,29Z" style="fill:white;fill-rule:nonzero;"/>
                <path id="path-11" serif:id="path-1" d="M150,15C224.558,15 285,75.442 285,150C285,224.558 224.558,285 150,285C75.442,285 15,224.558 15,150C15,75.442 75.442,15 150,15ZM150,22C79.308,22 22,79.308 22,150C22,220.692 79.308,278 150,278C220.692,278 278,220.692 278,150C278,79.308 220.692,22 150,22Z" style="fill:rgb(219,36,57);fill-rule:nonzero;"/>
            </g>
        </g>
        <g>
            <g id="Rectangle-6">
                <path d="M150.505,99.045L234.528,66.792C237.106,65.802 239.998,67.09 240.987,69.668L242.421,73.402C243.41,75.98 242.123,78.872 239.545,79.862L155.522,112.115C152.944,113.105 150.052,111.817 149.063,109.239L147.629,105.505C146.64,102.927 147.927,100.035 150.505,99.045Z" style="fill:rgb(254,136,0);fill-rule:nonzero;"/>
                <path d="M150.505,99.045L234.528,66.792C237.106,65.802 239.998,67.09 240.987,69.668L242.421,73.402C243.41,75.98 242.123,78.872 239.545,79.862L155.522,112.115C152.944,113.105 150.052,111.817 149.063,109.239L147.629,105.505C146.64,102.927 147.927,100.035 150.505,99.045Z" style="fill-opacity:0;fill-rule:nonzero;stroke:rgb(254,136,0);stroke-width:2px;"/>
            </g>
            <g id="Rectangle-6-Copy-2">
                <path d="M148.332,99.045L64.31,66.792C61.732,65.802 58.84,67.09 57.85,69.668L56.417,73.402C55.427,75.98 56.715,78.872 59.293,79.862L143.315,112.115C145.893,113.105 148.785,111.817 149.775,109.239L151.208,105.505C152.198,102.927 150.91,100.035 148.332,99.045Z" style="fill:rgb(254,136,0);fill-rule:nonzero;"/>
                <path d="M148.332,99.045L64.31,66.792C61.732,65.802 58.84,67.09 57.85,69.668L56.417,73.402C55.427,75.98 56.715,78.872 59.293,79.862L143.315,112.115C145.893,113.105 148.785,111.817 149.775,109.239L151.208,105.505C152.198,102.927 150.91,100.035 148.332,99.045Z" style="fill-opacity:0;fill-rule:nonzero;stroke:rgb(254,136,0);stroke-width:2px;"/>
            </g>
            <g id="Rectangle-6-Copy">
                <path d="M87.14,248.042L133.529,152.932C134.739,150.45 137.733,149.42 140.214,150.63L145.607,153.26C148.089,154.471 149.12,157.464 147.909,159.946L101.521,255.056C100.311,257.538 97.317,258.569 94.835,257.358L89.443,254.728C86.961,253.518 85.93,250.524 87.14,248.042Z" style="fill:rgb(254,136,0);fill-rule:nonzero;"/>
                <path d="M87.14,248.042L133.529,152.932C134.739,150.45 137.733,149.42 140.214,150.63L145.607,153.26C148.089,154.471 149.12,157.464 147.909,159.946L101.521,255.056C100.311,257.538 97.317,258.569 94.835,257.358L89.443,254.728C86.961,253.518 85.93,250.524 87.14,248.042Z" style="fill-opacity:0;fill-rule:nonzero;stroke:rgb(254,136,0);stroke-width:2px;"/>
            </g>
            <g id="Rectangle-6-Copy-3">
                <path d="M212.922,248.524L166.573,153.494C165.362,151.012 162.369,149.981 159.887,151.192L154.494,153.822C152.012,155.033 150.981,158.026 152.192,160.508L198.541,255.538C199.752,258.02 202.745,259.051 205.227,257.84L210.62,255.21C213.102,253.999 214.132,251.006 212.922,248.524Z" style="fill:rgb(254,136,0);fill-rule:nonzero;"/>
                <path d="M212.922,248.524L166.573,153.494C165.362,151.012 162.369,149.981 159.887,151.192L154.494,153.822C152.012,155.033 150.981,158.026 152.192,160.508L198.541,255.538C199.752,258.02 202.745,259.051 205.227,257.84L210.62,255.21C213.102,253.999 214.132,251.006 212.922,248.524Z" style="fill-opacity:0;fill-rule:nonzero;stroke:rgb(254,136,0);stroke-width:2px;"/>
            </g>
        </g>
        <g id="Man">
            <g>
                <path id="Rectangle-4" d="M127,112L127,267.197C127,269.958 129.236,272.199 131.995,272.199L142.005,272.199C144.764,272.199 147,269.96 147,267.197L149,172.959L151.849,172.836L153,267.197C153,269.958 155.236,272.199 157.995,272.199L168.005,272.199C170.764,272.199 173,269.96 173,267.197L173,112L249,112C251.77,112 254,109.763 254,107.003L254,100.997C254,98.242 251.761,96 249,96L172.582,96C171.81,94.235 170.049,93 168.001,93L131.999,93C129.947,93 128.188,94.234 127.417,96L51,96C48.23,96 46,98.237 46,100.997L46,107.003C46,109.758 48.239,112 51,112L127,112Z" style="fill:rgb(219,38,57);fill-rule:nonzero;"/>
                <path d="M168.001,90C170.575,90.041 172.507,91.071 174.139,93L249,93C253.417,93 257,96.583 257,100.997L257,107.003C257,111.422 253.424,115 249,115L176,115L176,267.197C176,271.616 172.422,275.199 168.005,275.199L157.995,275.199C153.579,275.199 150,271.614 150,267.233L150,267.199C149.822,271.873 146.459,274.75 142.005,275.199L131.995,275.199C127.579,275.199 124,271.614 124,267.197L124,115L51,115C46.583,115 43,111.417 43,107.003L43,100.997C43,96.578 46.576,93 51,93L125.858,93C127.311,90.96 129.599,90.177 131.999,90L168.001,90ZM168.001,93L131.999,93C129.947,93 128.188,94.234 127.417,96L51,96C48.23,96 46,98.237 46,100.997L46,107.003C46,109.758 48.239,112 51,112L127,112L127,267.197C127,269.958 129.236,272.199 131.995,272.199L142.005,272.199C144.764,272.199 147,269.96 147,267.197L149,172.959L151.849,172.836L153,267.197C153,269.958 155.236,272.199 157.995,272.199L168.005,272.199C170.764,272.199 173,269.96 173,267.197L173,112L249,112C251.77,112 254,109.763 254,107.003L254,100.997C254,98.242 251.761,96 249,96L172.582,96C171.81,94.235 170.049,93 168.001,93Z" style="fill:white;fill-rule:nonzero;"/>
            </g>
            <g id="Oval-2">
                <path d="M180,58C180,74.569 166.569,88 150,88C133.431,88 120,74.569 120,58C120,41.431 133.431,28 150,28C166.569,28 180,41.431 180,58Z" style="fill:rgb(219,38,57);fill-rule:nonzero;"/>
                <path d="M180,58C180,74.569 166.569,88 150,88C133.431,88 120,74.569 120,58C120,41.431 133.431,28 150,28C166.569,28 180,41.431 180,58Z" style="fill-opacity:0;fill-rule:nonzero;stroke:white;stroke-width:3px;"/>
            </g>
        </g>
        <path id="Oval-3" d="M163.991,65.511C163.722,57.784 158.216,69.73 150.489,70C142.761,70.27 135.739,58.761 136.009,66.489C136.278,74.216 142.761,80.261 150.489,79.991C158.216,79.722 164.261,73.239 163.991,65.511Z" style="fill:white;fill-rule:nonzero;"/>
        <path id="Oval-31" serif:id="Oval-3" d="M164,113.5C164,117.642 160.642,121 156.5,121C152.358,121 149,117.642 149,113.5C149,109.358 152.358,106 156.5,106C160.642,106 164,109.358 164,113.5Z" style="fill:white;fill-rule:nonzero;"/>
    </g>
</svg>
